<svg xmlns="http://www.w3.org/2000/svg" viewBox="0 0 320 200" width="320" height="200"><rect width="320" height="200" fill="#eef0f3"/><g stroke-linecap="round" stroke-linejoin="round"><g fill="#4a525c" stroke="#4a525c" stroke-width="2"><path d="M123.6 89.2L124.1 84.2L125.7 80.1L128.2 77.4L131.4 76.4L139.9 74.9L143.3 75.8L146.6 78.5L149.3 82.7L151 87.9L151.6 93.3L151 98.4L149.3 102.5L146.6 105.1L143.4 105.8L135 107.7L131.6 106.6L128.4 103.7L125.9 99.6L124.2 94.5Z"/><path d="M217.9 117.3L218.9 111.5L221.3 106.8L225.1 103.7L233.9 101.6L238.5 100.7L243.4 102L247.9 105.4L251.6 110.5L253.9 116.7L254.5 123.2L253.4 129.1L250.6 133.8L246.7 136.6L237.9 139.2L233.3 139.9L228.5 138.3L224.1 134.7L220.7 129.7L218.5 123.6Z"/></g><path d="M190.3 122.8Q244.7 115.3 270.9 102.5Q244.4 88.9 218.9 81.6L130.1 57.2L123 56.5Q80.7 60 48.3 67.5L55 68.5L139.3 97.9Q164.1 106.7 190.3 122.8Z" fill="#f8f9fa" stroke="#6b7480" stroke-width="3"/><path d="M216.5 82.1L142.3 97.3L115.3 55.4L173.1 47Z" fill="#dce1e7" stroke="#6b7480" stroke-width="3"/><g fill="#f8f9fa" stroke="#6b7480" stroke-width="3"><path d="M173.1 47L115.3 55.4L97.6 49.3L81.1 47.4L137.5 40.1L154.7 41.6Z"/><path d="M142.3 97.3L57.7 68.1L81.1 47.4L97.6 49.3L115.3 55.4Z"/></g><g fill="#dce1e7" stroke="#6b7480" stroke-width="2"><path d="M134.9 92.1L114.1 58.6L99.7 53.3L92.8 78.7Z"/><path d="M89.1 77.2L95.8 52.2L81.5 50.6L63.2 68.7Z"/></g><g fill="#4a525c" stroke="#4a525c" stroke-width="2"><path d="M59.3 101.4L59.6 96L61 91.6L63.3 88.7L66.2 87.8L76.2 86L79.4 87.1L82.6 90.1L85.2 94.6L87.1 100.3L87.8 106.2L87.4 111.6L85.8 116L83.4 118.7L80.3 119.4L70.5 121.5L67.3 120.2L64.3 117.1L61.8 112.6L60 107.1Z"/><path d="M77.8 108.2C77.5 98.8 73 89.8 67.8 88C62.7 86.4 59 92.4 59.3 101.4C59.6 110.3 63.9 119.1 68.9 121.1C74 123.2 78.1 117.5 77.8 108.2Z"/></g><path d="M74.5 107C74.3 100.9 71.4 95 68 93.8C64.7 92.6 62.2 96.6 62.4 102.5C62.6 108.4 65.4 114.2 68.7 115.5C72.1 116.8 74.7 113 74.5 107Z" fill="#c5ccd4" stroke="#6b7480" stroke-width="2"/><path d="M68.2 100.8L68 94.6M66.3 102.7L63 99.7M67.2 107.4L65.3 111.6M69.7 108.3L71.9 114.1M70.4 104.3L73.7 103.5" fill="none" stroke="#6b7480" stroke-width="2"/><path d="M70.1 105.3L69.1 102.3L67.4 101.7L66.6 104.1L67.6 107.1L69.3 107.7Z" fill="#6b7480"/><g fill="#4a525c" stroke="#4a525c" stroke-width="2"><path d="M149.6 134.7L150.3 128.4L152.6 123.3L156.1 120.1L166.8 117.6L171.2 116.7L176 118.2L180.5 122.1L184.3 127.8L186.6 134.7L187.4 141.8L186.4 148.3L183.9 153.3L180.1 156.2L169.5 159.3L165 159.9L160.4 158L156.1 153.9L152.6 148.3L150.3 141.6Z"/><path d="M176.7 144.8C176.8 133.5 170.6 122.3 162.9 119.7C155.4 117.2 149.6 124 149.6 134.7C149.6 145.3 155.4 156.2 162.7 159.2C170.2 162.3 176.6 155.9 176.7 144.8Z"/></g><path d="M171.8 143C171.9 135.7 167.8 128.3 162.9 126.6C158 124.9 154 129.3 154 136.4C154 143.4 157.9 150.6 162.7 152.5C167.7 154.5 171.8 150.2 171.8 143Z" fill="#c5ccd4" stroke="#6b7480" stroke-width="2"/><path d="M162.8 135L162.9 127.5M159.8 137.1L155.1 133.1M160.9 142.7L158 147.5M164.6 144.1L167.6 151.2M165.8 139.3L170.8 138.8" fill="none" stroke="#6b7480" stroke-width="2"/><path d="M165.3 140.6L164.1 136.9L161.5 135.9L160.3 138.7L161.5 142.3L164.1 143.3Z" fill="#6b7480"/><path d="M190.3 122.8L192.1 148.5Q192.6 156.5 187 154.4L179.4 150.9C180.8 141.2 177.8 129.6 171.7 121.8C165.8 114.1 158.2 111.7 152.5 115.4C146.9 119 144.1 127.9 145.2 138L144.2 138.1L80.3 113.8L79.5 113.1C80.1 104.8 77.7 95.4 73.5 89.2C69.3 83.1 64.1 81.5 60.4 84.9C56.7 88.2 55.1 95.8 56.2 104.3L50.6 100.6Q47.9 99.6 48 94.7L48.3 67.5L55 68.5L139.3 97.9Q164.1 106.7 190.3 122.8Z" fill="#f8f9fa" stroke="#6b7480" stroke-width="3"/><path d="M139.3 97.9L142.2 136.8M87.4 79.8L88.4 116.9M57.5 69.5L61.3 84.1" fill="none" stroke="#6b7480" stroke-width="2"/><path d="M89.8 85.7L95.7 87.6M62.2 76.1L67.4 77.7" fill="none" stroke="#6b7480" stroke-width="3"/><path d="M190.8 129.9L180.9 124.3L181.4 120.9L190.5 125.2Z" fill="#dce1e7" stroke="#6b7480" stroke-width="2"/><path d="M48.3 69.8L53.9 70.5L53.6 76.2L48.2 76.5Z" fill="#c5ccd4" stroke="#6b7480" stroke-width="2"/><path d="M200 155.3Q245 147.3 269 134.5C270.9 133.5 272.2 129.4 272 125.4Q271.5 114.7 271 104C270.9 103.1 270.6 102.6 270.2 102.8Q244.4 115.3 191.9 122.6C191 122.7 190.4 123.6 190.4 124.5Q191.3 136.5 192.1 148.5C192.4 152.9 195.9 156 200 155.3Q200 155.3 200 155.3Z" fill="#f8f9fa" stroke="#6b7480" stroke-width="3"/><g fill="#dce1e7" stroke="#6b7480" stroke-width="2"><path d="M254.7 117.7L270.5 109.2L270.3 104.9L255.2 111.7Z"/><path d="M220.9 126.8L192.4 129.7L192.1 125L219.5 121Z"/></g><path d="M226.6 135.1L251.4 128.1C252.5 127.7 253.3 126 253.2 124.3L252.9 118C252.8 116.2 251.8 115.1 250.8 115.4L225.8 122C224.4 122.3 223.4 124.1 223.5 125.9L223.9 132.5C224 134.3 225.2 135.5 226.6 135.1Z" fill="#c5ccd4" stroke="#6b7480" stroke-width="2"/><path d="M227.3 130.7L250.4 124.3M227.1 126.1L250.2 119.8M193.7 144.2Q245.5 136 271 122.3" fill="none" stroke="#6b7480" stroke-width="2"/><path d="M214.7 149.1Q242.4 143.3 260.7 135.3C261.4 135 262 133.7 261.9 132.3C261.9 130.9 261.2 130.1 260.5 130.4Q242.1 138.1 214.3 143.8C213.1 144.1 212.2 145.4 212.3 146.9C212.4 148.4 213.5 149.3 214.7 149.1Z" fill="#c5ccd4" stroke="#6b7480" stroke-width="2"/><g fill="#f8f9fa" stroke="#6b7480" stroke-width="2"><path d="M131.3 92L139.6 90.4L143.1 91.4L143.1 94.5L134.8 96.1L131.3 95.1Z"/><path d="M124.3 88.1L130.3 87L136.9 88.9L137 96.9L131 98.1L124.4 96.1Z"/></g><path d="M139.6 104.7V90.7H153.6M268 90.7H282V104.7M282 155.9V169.9H268M153.6 169.9H139.6V155.9" fill="none" stroke="#eef0f3" stroke-width="7"/><path d="M139.6 104.7V90.7H153.6M268 90.7H282V104.7M282 155.9V169.9H268M153.6 169.9H139.6V155.9" fill="none" stroke="#2f3640" stroke-width="3"/></g></svg>
