<svg xmlns="http://www.w3.org/2000/svg" viewBox="0 0 320 200" width="320" height="200"><rect width="320" height="200" fill="#eef0f3"/><g stroke-linecap="round" stroke-linejoin="round"><rect x="102" y="19" width="116" height="162" rx="4" fill="#f8f9fa" stroke="#6b7480" stroke-width="3"/><rect x="126" y="32" width="68" height="6" rx="3" fill="#c5ccd4"/><rect x="114" y="48" width="60" height="5" rx="2.5" fill="#c5ccd4"/><rect x="114" y="59" width="44" height="5" rx="2.5" fill="#c5ccd4"/><rect x="165" y="59" width="30" height="5" rx="2.5" fill="#c5ccd4"/><rect x="114" y="74" width="92" height="42" rx="2" fill="none" stroke="#6b7480" stroke-width="2"/><path d="M150 74L150 116M114 88L206 88M114 102L206 102" fill="none" stroke="#6b7480" stroke-width="2"/><rect x="119" y="79" width="24" height="4" rx="2" fill="#c5ccd4"/><rect x="156" y="79" width="40" height="4" rx="2" fill="#c5ccd4"/><rect x="119" y="93" width="24" height="4" rx="2" fill="#c5ccd4"/><rect x="156" y="93" width="32" height="4" rx="2" fill="#c5ccd4"/><rect x="119" y="107" width="24" height="4" rx="2" fill="#c5ccd4"/><rect x="156" y="107" width="24" height="4" rx="2" fill="#c5ccd4"/><rect x="114" y="124" width="84" height="5" rx="2.5" fill="#c5ccd4"/><rect x="114" y="135" width="62" height="5" rx="2.5" fill="#c5ccd4"/><circle cx="186" cy="160" r="13" fill="none" stroke="#6b7480" stroke-width="2"/><circle cx="186" cy="160" r="8.5" fill="none" stroke="#6b7480" stroke-width="2"/><path d="M118 160c5.2 -10 10.4 8 15.6 -1s9.4 -8 15.6 1s10.4 3 20.8 -5" fill="none" stroke="#6b7480" stroke-width="2"/><path d="M92 23V9H106M214 9H228V23M228 177V191H214M106 191H92V177" fill="none" stroke="#eef0f3" stroke-width="7"/><path d="M92 23V9H106M214 9H228V23M228 177V191H214M106 191H92V177" fill="none" stroke="#2f3640" stroke-width="3"/></g></svg>
